# xmcd
#
# Track frame offsets:
#	150
#	13055
#	27290
#	37627
#	50622
#	62027
#	73965
#	87292
#	99697
#	111600
#	122202
#
# Disc length: 1797 seconds
#
# Revision: 1
# Processed by: cddbd v1.5.1PL2 Copyright (c) Steve Scherf et al.
# Submitted via: audiograbber 1.83.01
#
DISCID=9a07030b
DTITLE=The McKameys - Sing Praises
DYEAR=1989
DGENRE=Southern Gospel
TTITLE0=Blood Covenant
TTITLE1=God Will Make This Trial A Blessing
TTITLE2=Broken Things
TTITLE3=Glorious Things He Has Done
TTITLE4=I Want You To Know That I Love Him
TTITLE5=Heaven Will Be My Resting Place
TTITLE6=The Realness Of The Spirit
TTITLE7=Let Us Sing Praises
TTITLE8=Under His Feet
TTITLE9=With All My Heart I Thank You Lord
TTITLE10=Under His Feet (Live)
EXTD=Gospel
EXTT0=
EXTT1=
EXTT2=
EXTT3=
EXTT4=
EXTT5=
EXTT6=
EXTT7=
EXTT8=
EXTT9=
EXTT10=
PLAYORDER=
